<svg width="20" height="20" viewBox="0 0 33 33" fill="none" xmlns="http://www.w3.org/2000/svg">
<path d="M32.9277 16.2354C32.9277 25.0719 25.7643 32.2354 16.9277 32.2354C8.09118 32.2354 0.927734 25.0719 0.927734 16.2354C0.927734 7.3988 8.09118 0.235352 16.9277 0.235352C25.7643 0.235352 32.9277 7.3988 32.9277 16.2354ZM3.00774 16.2354C3.00774 23.9232 9.23993 30.1554 16.9277 30.1554C24.6155 30.1554 30.8477 23.9232 30.8477 16.2354C30.8477 8.54755 24.6155 2.31535 16.9277 2.31535C9.23993 2.31535 3.00774 8.54755 3.00774 16.2354Z" fill="#2A3557"/>
<path d="M31.8877 16.2354C32.4621 16.2354 32.9313 15.7692 32.894 15.1961C32.7803 13.4505 32.381 11.7329 31.7098 10.1124C30.9057 8.17121 29.7272 6.40738 28.2414 4.92164C26.7557 3.43591 24.9919 2.25735 23.0507 1.45328C21.4302 0.782059 19.7126 0.382764 17.967 0.26914C17.3939 0.231831 16.9277 0.700975 16.9277 1.27535C16.9277 1.84973 17.394 2.31131 17.9668 2.35418C19.439 2.46439 20.8866 2.80828 22.2547 3.37495C23.9435 4.0745 25.4781 5.09983 26.7707 6.39243C28.0633 7.68502 29.0886 9.21955 29.7881 10.9084C30.3548 12.2765 30.6987 13.7241 30.8089 15.1963C30.8518 15.7691 31.3134 16.2354 31.8877 16.2354Z" fill="#FFFFFF"/>
</svg>
